<svg version="1.2" baseProfile="tiny-ps" xmlns="http://www.w3.org/2000/svg" viewBox="0 0 16 15" width="16" height="15">
	<title>phone</title>
	<style>
		tspan { white-space:pre }
		.shp0 { fill: #7eb151 } 
	</style>
	<path id="телефон" fill-rule="evenodd" class="shp0" d="M2.83 0.22C3.87 0.21 4.18 0.73 4.69 1.24C5.22 1.77 5.75 2.3 6.28 2.83C6.57 3.13 6.74 3.26 6.88 3.74C6.91 3.84 6.95 4.07 6.91 4.22C6.79 4.72 6.51 4.95 6.2 5.26C6.03 5.44 5.85 5.62 5.67 5.81C5.55 5.92 5.2 6.19 5.16 6.35C5.24 6.44 5.28 6.56 5.34 6.66C5.48 6.86 5.64 7.05 5.78 7.25C5.94 7.46 6.17 7.64 6.33 7.85C6.74 8.39 7.32 8.94 7.86 9.35C7.94 9.41 8 9.51 8.08 9.57C8.3 9.73 8.51 9.89 8.74 10.04C8.86 10.12 8.97 10.24 9.14 10.26C9.3 10.02 9.58 9.82 9.78 9.62C10.2 9.2 10.55 8.67 11.22 8.51C11.48 8.44 11.77 8.55 11.92 8.62C12.53 8.91 12.92 9.46 13.38 9.91C13.76 10.3 14.14 10.68 14.53 11.06C14.7 11.24 14.95 11.4 15.06 11.65C15.12 11.8 15.16 11.98 15.2 12.14C15.25 12.33 15.21 12.66 15.17 12.8C15.01 13.25 14.48 13.63 14.16 13.95C13.89 14.22 13.65 14.53 13.28 14.71C12.99 14.86 12.64 14.92 12.3 15.01C11.78 15.14 10.95 15.09 10.47 14.97C10.37 14.96 10.27 14.94 10.16 14.93C9.83 14.84 9.47 14.78 9.16 14.64C8.68 14.43 8.21 14.23 7.77 13.98C7.52 13.84 7.27 13.65 7.02 13.51C4.87 12.31 2.97 10.31 1.77 8.16C1.64 7.93 1.47 7.69 1.33 7.47C1.15 7.16 1.03 6.84 0.89 6.5C0.37 5.27 0.06 3.37 0.75 2.05C0.9 1.74 1.22 1.52 1.46 1.28C1.72 1.01 1.98 0.74 2.24 0.48C2.33 0.41 2.45 0.34 2.55 0.29C2.64 0.25 2.76 0.28 2.83 0.22ZM2.94 1.02C2.87 1.07 2.78 1.09 2.72 1.13C2.44 1.42 2.16 1.7 1.88 1.99C1.74 2.13 1.52 2.27 1.44 2.47C0.73 4.06 1.46 6.14 2.13 7.25C2.65 8.1 3.19 8.91 3.78 9.69C3.87 9.82 4.01 9.92 4.1 10.04C4.27 10.26 4.45 10.48 4.67 10.64C4.74 10.69 4.77 10.79 4.83 10.84C5.1 11.06 5.33 11.33 5.6 11.54C5.92 11.78 6.22 12.04 6.55 12.27C7.17 12.7 7.82 13.07 8.5 13.44C9.37 13.91 10.89 14.54 12.28 14.17C12.5 14.11 12.68 14.1 12.87 14.02C13.11 13.91 13.27 13.71 13.45 13.53C13.74 13.24 14.03 12.95 14.33 12.67C14.36 12.63 14.36 12.58 14.4 12.54C14.4 11.85 14.08 11.77 13.74 11.43C13.63 11.31 13.53 11.18 13.41 11.06C13.05 10.7 12.68 10.36 12.32 10C12.15 9.83 11.79 9.34 11.53 9.31C11.3 9.17 10.95 9.58 10.86 9.68C10.49 10.03 10.13 10.39 9.76 10.75C9.66 10.86 9.46 11.14 9.31 11.17C9.2 11.1 9.03 11.12 8.9 11.06C8.67 10.96 8.42 10.81 8.21 10.66C7.16 9.93 6.07 8.91 5.31 7.89C4.91 7.36 4.36 6.88 4.25 6.08C4.49 5.92 4.72 5.61 4.93 5.4C5.28 5.05 5.64 4.72 5.97 4.35C5.98 4.35 5.99 4.35 6 4.35C6.11 4.22 6.13 4.03 6.11 3.83C6.06 3.79 6.04 3.73 6 3.67C5.88 3.51 5.66 3.33 5.51 3.18C5.02 2.7 4.54 2.23 4.05 1.75C3.75 1.45 3.54 1.02 2.94 1.02Z" />
</svg>